<svg width="716.84" height="321.7" version="1.1" viewBox="0 0 189.66 85.117" xmlns="http://www.w3.org/2000/svg" xmlns:xlink="http://www.w3.org/1999/xlink"><defs><radialGradient id="radialGradient850" cx="-23.85" cy="143.39" r="56.647" fx="-19.603" fy="136.2" gradientTransform="matrix(1.3042 -.75842 .54082 .92998 78.94 -65.2)" gradientUnits="userSpaceOnUse"><stop stop-color="#fdc200" offset="0"/><stop stop-color="#f0d01a" stop-opacity="0" offset="1"/></radialGradient></defs><g transform="translate(-36.527 -37.169)"><g><path d="m117.16 84.974c-96.416-12.677-95.944-15.37-95.944-15.37l14.596-21.226 78.942 31.777-70.602-46.79 16.347-19.683 58.275 61.888-44.597-71.562 24.354-9.6749 26.608 80.196-7.9259-84.199 27.69-0.33362-14.322 85.177 37.341-80.172 23.687 16.014-57.434 67.923 71.78-52.576 10.676 22.019-81.113 34.973 90.121-19.293 2.6689 24.688-94.658-1.8813-1.5334-5.6761-5.0173-4.6053-6.3858 1.0111z" fill="url(#radialGradient850)" stroke-width="0"/><path d="m209.27 93.608q2.5109 0 3.8112-0.26903v-6.0083q-0.44838-0.13452-1.3003-0.26903-0.85193-0.13452-1.8832-0.13452-0.89677 0-1.8384 0.13452-0.89677 0.13451-1.659 0.49322-0.71741 0.35871-1.1658 1.0313-0.44838 0.62774-0.44838 1.6142 0 1.928 1.2106 2.6903 1.2106 0.71741 3.2732 0.71741zm-0.44838-20.222q2.6903 0 4.5287 0.67257t2.9145 1.8832q1.121 1.2106 1.5693 2.9593 0.49322 1.7039 0.49322 3.7664v14.214q-1.2555 0.26903-3.8112 0.62774-2.5109 0.40354-5.6944 0.40354-2.1074 0-3.8561-0.40354t-3.0042-1.3003q-1.2106-0.89676-1.928-2.3316-0.67258-1.4348-0.67258-3.5422 0-2.0177 0.76225-3.4077 0.80709-1.39 2.1522-2.2419 1.3451-0.89676 3.0938-1.2555 1.7935-0.40354 3.7216-0.40354 0.89676 0 1.8832 0.13452 0.98644 0.08968 2.1074 0.35871v-0.89676q0-0.9416-0.22419-1.7935t-0.80709-1.4797q-0.53806-0.67257-1.4797-1.0313-0.89677-0.35871-2.2868-0.35871-1.8832 0-3.4525 0.26903-1.5693 0.26903-2.5558 0.62774l-0.67258-4.3941q1.0313-0.35871 3.0042-0.71741 1.9729-0.3587 4.2148-0.3587zm-25.378 24.033q-2.2419-4.6183-4.6183-10.582-2.3316-6.0083-4.2596-12.869h5.7841q0.49322 1.9729 1.121 4.2596 0.67258 2.2419 1.39 4.5287 0.76225 2.2419 1.5245 4.3941 0.80709 2.1074 1.4797 3.8112 0.67257-1.7039 1.4348-3.8112 0.76225-2.1522 1.4797-4.3941 0.76225-2.2868 1.4348-4.5287 0.67257-2.2867 1.1658-4.2596h5.6048q-1.928 6.8602-4.3045 12.869-2.3316 5.9635-4.5735 10.582zm-12.913 0h-5.4254v-23.45h5.4254zm0.5829-30.311q0 1.5245-0.98644 2.4213-0.98644 0.89676-2.3316 0.89676-1.39 0-2.3764-0.89676-0.98644-0.89676-0.98644-2.4213 0-1.5693 0.98644-2.4661 0.98644-0.89676 2.3764-0.89676 1.3452 0 2.3316 0.89676 0.98644 0.89676 0.98644 2.4661zm-23.63 30.311q-2.2419-4.6183-4.6183-10.582-2.3316-6.0083-4.2596-12.869h5.7841q0.49322 1.9729 1.121 4.2596 0.67258 2.2419 1.39 4.5287 0.76225 2.2419 1.5245 4.3941 0.80709 2.1074 1.4797 3.8112 0.67257-1.7039 1.4348-3.8112 0.76225-2.1522 1.4797-4.3941 0.76225-2.2868 1.4348-4.5287 0.67257-2.2867 1.1658-4.2596h5.6048q-1.928 6.8602-4.3045 12.869-2.3316 5.9635-4.5735 10.582zm-11.075-11.748q0 2.78-0.80709 5.0667-0.80709 2.2868-2.2868 3.9009t-3.5871 2.5109q-2.0626 0.89676-4.5735 0.89676t-4.5735-0.89676q-2.0626-0.89676-3.5422-2.5109t-2.3316-3.9009q-0.80708-2.2867-0.80708-5.0667t0.80708-5.0219q0.85193-2.2867 2.3316-3.9009 1.5245-1.6142 3.5871-2.4661 2.0626-0.89676 4.5287-0.89676t4.5287 0.89676q2.1074 0.85193 3.5871 2.4661 1.4797 1.6142 2.2868 3.9009 0.85193 2.2419 0.85193 5.0219zm-5.5599 0q0-3.4974-1.5245-5.5151-1.4797-2.0626-4.17-2.0626t-4.2148 2.0626q-1.4797 2.0177-1.4797 5.5151 0 3.5422 1.4797 5.6048 1.5245 2.0626 4.2148 2.0626t4.17-2.0626q1.5245-2.0626 1.5245-5.6048zm-20.357-6.8154q-0.67257-0.22419-1.8832-0.44838-1.1658-0.26903-2.7351-0.26903-0.89676 0-1.928 0.17935-0.98644 0.17935-1.39 0.31387v18.787h-5.4254v-22.329q1.5693-0.5829 3.9009-1.0761 2.3764-0.53806 5.2461-0.53806 0.53805 0 1.2555 0.08968 0.71741 0.04484 1.4348 0.17935 0.71741 0.08968 1.39 0.26903 0.67258 0.13451 1.0761 0.26903zm-20.267 17.846q-1.5693 0.40354-4.0803 0.80709-2.5109 0.44838-5.5151 0.44838-2.8248 0-4.7529-0.80709-1.8832-0.80709-3.049-2.2419-1.121-1.4348-1.6142-3.4077-0.49322-2.0177-0.49322-4.3941v-13.138h5.4254v12.286q0 3.7664 1.0761 5.3806 1.121 1.6142 3.8561 1.6142 0.98644 0 2.0626-0.08968 1.121-0.08968 1.659-0.22419v-18.967h5.4254zm-30.4-10.896q0-3.6319-1.659-5.6496-1.6142-2.0177-5.2461-2.0177-0.76225 0-1.6142 0.08968-0.80709 0.04484-1.6142 0.26903v13.407q0.71741 0.49322 1.8832 0.9416 1.2106 0.40354 2.5558 0.40354 2.9593 0 4.3045-2.0177 1.39-2.0177 1.39-5.4254zm5.5599-0.08968q0 2.6903-0.71741 4.9322-0.67257 2.2419-1.9729 3.8561-1.3003 1.6142-3.2732 2.5109-1.928 0.89676-4.3941 0.89676-1.659 0-3.049-0.40354t-2.2868-0.89676v9.1022h-5.4254v-30.983q1.659-0.44838 4.0803-0.85193 2.4213-0.40354 5.1116-0.40354 2.78 0 4.977 0.85193 2.1971 0.85193 3.7216 2.4661 1.5693 1.5693 2.3764 3.8561 0.85193 2.2419 0.85193 5.0667z" fill="#262626" stroke-width=".46706" style="font-variant-caps:normal;font-variant-east-asian:normal;font-variant-ligatures:normal;font-variant-numeric:normal"/></g></g></svg>
